<svg width="512" height="512" viewBox="0 0 512 512" fill="none" xmlns="http://www.w3.org/2000/svg">
<g clip-path="url(#clip0_1_2)">
<rect width="512" height="512" rx="102.4" fill="#00C8B3"/>
<path d="M424.569 101.617C420.889 94.1678 412.819 90.0443 404.75 90H102.588C96.1587 90 89.5967 92.3499 85.4733 97.4488C81.7932 101.927 80.0197 107.114 80.0197 112.923V387.196C80.0197 391.231 79.9754 395.266 80.0197 399.301C80.064 402.892 80.9508 406.483 82.5913 409.676C85.4289 415.218 90.3948 419.563 96.7351 420.849C97.3558 420.982 97.9322 421.07 98.5086 421.159C100.06 421.381 101.612 421.47 103.164 421.47H288.718C288.186 420.405 287.698 419.297 287.299 418.144C285.038 411.715 285.171 405.508 285.259 401.384C285.259 400.764 285.304 400.143 285.304 399.744V399.301H102.189V345.253C115.978 331.597 129.811 317.896 143.6 304.24C147.768 308.364 151.891 312.487 156.059 316.611C166.833 327.296 177.607 338.026 188.381 348.711C190.864 351.15 193.303 353.633 195.786 356.071C200.042 360.283 207.181 360.328 211.437 356.071C216.403 351.15 221.324 346.228 226.246 341.307C238.128 329.513 249.967 317.675 261.849 305.881C276.215 291.604 290.58 277.283 304.945 263.006C317.36 250.636 329.775 238.31 342.189 225.94C345.692 222.437 349.283 219.023 352.786 215.565C357.308 219.998 361.787 224.477 366.265 228.91L400.272 262.563C401.824 264.07 403.331 265.622 404.883 267.13V295.506C412.287 301.757 419.647 308.009 427.052 314.261V118.731C427.096 112.745 427.362 107.292 424.569 101.617ZM209.176 178.277C208.998 192.287 199.022 204.835 185.1 207.495C172.863 209.845 160.227 204.303 153.753 193.617C147.28 182.888 148.389 168.966 156.281 159.3C164.129 149.679 177.74 145.866 189.445 150.166C201.195 154.512 208.998 165.685 209.176 178.188V178.277Z" fill="#2F2F2F"/>
<path d="M467.222 382.851C466.468 385.512 464.296 386.975 462.345 388.66C459.551 391.009 456.758 393.359 453.965 395.754C444.92 403.38 435.919 411.006 426.874 418.676C411.8 431.401 396.813 444.215 381.694 456.895C380.497 457.915 379.3 458.891 377.704 459.334C377.039 459.511 376.418 459.6 375.797 459.6C374.644 459.6 373.536 459.29 372.561 458.802C372.383 458.713 372.206 458.625 372.073 458.492C371.585 458.181 371.097 457.782 370.698 457.383C370.521 457.206 370.388 457.028 370.211 456.851C369.59 456.097 369.102 455.211 368.792 454.235C368.703 454.013 368.659 453.836 368.615 453.614C368.482 453.127 368.437 452.639 368.393 452.151V451.353C368.349 446.786 368.393 442.22 368.393 437.697V415.528H329.73C326.449 415.528 323.168 415.617 319.887 415.617C318.247 415.617 316.606 415.573 314.966 415.528C306.098 415.129 307.473 405.907 307.473 399.833V352.347C307.473 351.017 307.384 349.598 307.473 348.268C307.739 344.056 310.754 341.085 314.966 340.819H368.349V311.113C368.349 310.625 368.304 310.137 368.349 309.65C368.482 307.255 369.413 305.127 371.408 303.708C372.738 302.733 374.157 302.334 375.576 302.334C376.906 302.334 378.236 302.689 379.61 303.309C380.364 303.664 381.029 304.152 381.517 304.817C381.606 304.905 381.694 304.994 381.827 305.083C389.498 311.6 397.212 318.074 404.883 324.591C412.287 330.843 419.647 337.095 427.052 343.346C427.318 343.568 427.584 343.79 427.85 344.011C436.717 351.504 445.541 358.998 454.408 366.491C457.157 368.841 459.95 371.146 462.699 373.496C465.626 375.846 468.508 378.24 467.222 382.851Z" fill="#2F2F2F"/>
</g>
<defs>
<clipPath id="clip0_1_2">
<rect width="512" height="512" fill="white"/>
</clipPath>
</defs>
</svg>
